HIERARCHY
ROOT root
{
	OFFSET 0.000000 0.000000 0.000000
	CHANNELS 6 Xposition Yposition Zposition Zrotation Yrotation Xrotation
	JOINT lhip
	{
		OFFSET 0.058581 -0.082280 -0.017664
		CHANNELS 3 Zrotation Yrotation Xrotation
		JOINT lknee
		{
			OFFSET 0.043451 -0.386469 0.008037
			CHANNELS 3 Zrotation Yrotation Xrotation
			JOINT lankle
			{
				OFFSET -0.014790 -0.426874 -0.037428
				CHANNELS 3 Zrotation Yrotation Xrotation
				JOINT ltoe
				{
					OFFSET 0.041054 -0.060286 0.122042
					CHANNELS 3 Zrotation Yrotation Xrotation
					End Site
					{
						OFFSET 0.000000 0.000000 0.000000
					}
				}
			}
		}
	}
	JOINT rhip
	{
		OFFSET -0.060310 -0.090513 -0.013543
		CHANNELS 3 Zrotation Yrotation Xrotation
		JOINT rknee
		{
			OFFSET -0.043257 -0.383688 -0.004843
			CHANNELS 3 Zrotation Yrotation Xrotation
			JOINT rankle
			{
				OFFSET 0.019056 -0.420046 -0.034562
				CHANNELS 3 Zrotation Yrotation Xrotation
				JOINT rtoe
				{
					OFFSET -0.034840 -0.062106 0.130323
					CHANNELS 3 Zrotation Yrotation Xrotation
					End Site
					{
						OFFSET 0.000000 0.000000 0.000000
					}
				}
			}
		}
	}
	JOINT lowerback
	{
		OFFSET 0.004439 0.124404 -0.038385
		CHANNELS 3 Zrotation Yrotation Xrotation
		JOINT upperback
		{
			OFFSET 0.004488 0.137956 0.026820
			CHANNELS 3 Zrotation Yrotation Xrotation
			JOINT chest
			{
				OFFSET -0.002265 0.056032 0.002855
				CHANNELS 3 Zrotation Yrotation Xrotation
				JOINT lowerneck
				{
					OFFSET -0.013390 0.211636 -0.033468
					CHANNELS 3 Zrotation Yrotation Xrotation
					JOINT upperneck
					{
						OFFSET 0.010113 0.088937 0.050410
						CHANNELS 3 Zrotation Yrotation Xrotation
						End Site
						{
							OFFSET 0.000000 0.000000 0.000000
						}
					}
				}
				JOINT lclavicle
				{
					OFFSET 0.071702 0.114000 -0.018898
					CHANNELS 3 Zrotation Yrotation Xrotation
					JOINT lshoulder
					{
						OFFSET 0.122921 0.045205 -0.019046
						CHANNELS 3 Zrotation Yrotation Xrotation
						JOINT lelbow
						{
							OFFSET 0.255332 -0.015649 -0.022946
							CHANNELS 3 Zrotation Yrotation Xrotation
							JOINT lwrist
							{
								OFFSET 0.265709 0.012698 -0.007375
								CHANNELS 3 Zrotation Yrotation Xrotation
								End Site
								{
									OFFSET 0.000000 0.000000 0.000000
								}
							}
						}
					}
				}
				JOINT rclavicle
				{
					OFFSET -0.082954 0.112472 -0.023707
					CHANNELS 3 Zrotation Yrotation Xrotation
					JOINT rshoulder
					{
						OFFSET -0.113228 0.046853 -0.008472
						CHANNELS 3 Zrotation Yrotation Xrotation
						JOINT relbow
						{
							OFFSET -0.260127 -0.014369 -0.031269
							CHANNELS 3 Zrotation Yrotation Xrotation
							JOINT rwrist
							{
								OFFSET -0.269108 0.006794 -0.006027
								CHANNELS 3 Zrotation Yrotation Xrotation
								End Site
								{
									OFFSET 0.000000 0.000000 0.000000
								}
							}
						}
					}
				}
			}
		}
	}
}
MOTION
Frames: 11
Frame Time: 0.033333
0.233393 0.453572 0.983977 80.351708 3.073226 99.620610 -2.085813 1.113809 -4.867834 -3.019954 -6.450755 -3.667617 7.659796 14.431970 -8.210153 0.000000 -0.000000 0.000000 -21.788553 -4.131952 1.233354 0.131235 7.915683 6.446416 23.032764 -11.204057 19.326319 0.000000 -0.000000 0.000000 1.430030 -2.764660 -0.579199 7.719230 -9.537200 -24.360540 5.221833 -0.358903 11.185644 2.278637 31.262470 10.562945 2.137004 27.241196 -13.640236 31.574608 4.225452 -18.105982 9.833817 -13.682947 -21.726258 12.071747 -6.433629 -15.615678 -15.761504 -12.345362 -25.785954 -20.991944 -15.170455 -17.251289 1.892881 -1.318543 -17.333581 -129.158322 60.278406 -129.220814 17.182934 12.730768 -24.119207 
0.233745 0.453408 0.984008 80.320650 3.040081 99.432145 -2.137466 1.213629 -4.615135 -3.001026 -6.677689 -3.700614 7.502466 14.583651 -8.314375 0.000000 -0.000000 0.000000 -21.836949 -4.276444 1.405297 0.176830 8.157045 6.517308 22.547195 -11.045499 19.375560 0.000000 -0.000000 0.000000 1.350271 -2.728675 -0.460430 7.791895 -9.565294 -24.624637 5.167771 -0.254388 11.666545 2.194419 31.001252 10.526453 1.982886 27.288137 -13.683825 31.516259 4.172587 -18.338574 9.808938 -13.537259 -21.685012 12.095323 -6.665591 -15.261170 -14.378725 -11.702057 -26.192415 -20.934250 -15.244438 -17.731734 1.913652 -1.408419 -17.387814 -129.915874 60.567332 -129.847845 15.851120 12.255241 -24.351898 
0.233452 0.453309 0.983848 80.104112 3.051444 99.475745 -2.150125 1.222943 -4.669904 -2.943990 -6.738668 -3.781114 7.558695 14.825366 -8.107696 0.000000 -0.000000 0.000000 -21.821971 -4.154324 1.101583 0.219956 8.201916 6.738601 22.440154 -11.040288 19.066537 0.000000 -0.000000 0.000000 1.275794 -2.743066 -0.383719 7.840576 -9.414291 -24.850853 5.189064 -0.205662 11.814185 2.168411 30.896857 10.317059 2.156374 27.399527 -13.360791 31.512028 4.387182 -18.399134 9.750989 -13.698557 -21.629568 11.901343 -6.801623 -15.095595 -13.295340 -11.023746 -26.193531 -20.808882 -15.458668 -17.758424 1.951239 -1.079038 -17.378408 -130.292738 60.649683 -130.289529 14.584116 11.577399 -24.130702 
0.233591 0.453508 0.983683 80.119820 3.021507 99.448167 -2.169029 1.161927 -4.701740 -2.986119 -6.704640 -3.650308 7.578068 14.870176 -8.170469 0.000000 -0.000000 0.000000 -21.832202 -4.130931 1.098015 0.203242 8.143592 6.865008 22.379812 -11.062020 19.034408 0.000000 -0.000000 0.000000 1.337732 -2.758457 -0.330274 7.810488 -9.352114 -25.026348 5.075900 -0.195926 12.005817 2.109249 30.885340 10.227245 2.127350 27.425390 -13.383445 31.457929 4.730696 -18.441899 9.628209 -13.897474 -21.600392 11.913963 -7.034552 -15.407723 -12.410790 -10.592233 -26.327636 -20.647147 -15.673235 -17.737435 1.892697 -1.013344 -17.304645 -130.783173 60.599838 -130.916582 13.989492 11.451831 -24.132598 
0.233961 0.453412 0.983556 80.209488 3.064524 99.383408 -2.089698 1.257759 -4.649214 -3.019698 -6.736303 -3.573239 7.450641 14.754192 -8.271181 0.000000 -0.000000 0.000000 -21.747571 -4.114338 1.249383 0.171213 8.168690 6.847928 22.345986 -11.026083 18.949389 0.000000 -0.000000 0.000000 1.395951 -2.787149 -0.374952 7.808014 -9.384072 -24.954612 5.060917 -0.196822 11.982329 2.237540 30.931535 10.429389 2.011277 27.320174 -13.488882 31.516504 4.738476 -18.574945 9.491159 -13.987095 -21.589614 11.952873 -6.908643 -15.372416 -12.071520 -10.538650 -26.294370 -20.680174 -15.581745 -17.835033 1.881852 -1.175218 -17.287465 -131.080906 60.700492 -131.300980 13.885156 11.786873 -24.395526 
0.233851 0.453440 0.983574 80.205358 3.059173 99.352118 -2.087292 1.196470 -4.579073 -3.000279 -6.616754 -3.605241 7.443658 14.657584 -8.314148 0.000000 -0.000000 0.000000 -21.768975 -4.098470 1.261453 0.166254 8.074812 6.896886 22.398254 -10.925788 19.006161 0.000000 -0.000000 0.000000 1.333578 -2.735770 -0.326783 7.762624 -9.327525 -24.861621 5.092238 -0.138384 11.914536 2.280370 31.037877 10.253137 2.025532 27.173771 -13.539950 31.611764 4.915527 -18.699306 9.285303 -14.319562 -21.547580 12.245088 -6.624523 -15.435286 -13.167416 -11.254502 -26.295947 -20.547303 -15.772384 -18.026195 1.986010 -1.087508 -17.124933 -130.799868 60.545822 -130.962161 15.071104 12.235148 -24.587688 
0.233996 0.453411 0.983531 80.414210 3.030889 99.269453 -2.081866 1.190671 -4.534287 -3.029174 -6.695653 -3.479008 7.430873 14.529579 -8.369584 0.000000 -0.000000 0.000000 -21.790991 -4.164833 1.583548 0.165173 8.074550 6.701598 22.416090 -10.903553 18.982930 0.000000 -0.000000 0.000000 1.335071 -2.770015 -0.269077 7.763667 -9.412984 -25.018684 5.092466 -0.154399 11.983043 2.336829 30.873750 10.345660 2.053616 27.028330 -13.353547 31.577554 4.862348 -18.548216 9.283887 -14.372297 -21.754616 12.249348 -6.537305 -15.489793 -13.391539 -11.560989 -26.747164 -20.736577 -15.620121 -17.770614 2.268779 -1.284470 -17.301228 -130.776072 60.453959 -130.717587 15.119998 12.391978 -24.783764 
0.233340 0.453151 0.983666 80.430812 3.094969 99.262330 -1.970232 1.271135 -4.608210 -3.090923 -6.721771 -3.385908 7.407469 14.543349 -8.353472 0.000000 -0.000000 0.000000 -21.672138 -4.244349 1.489195 0.156221 8.100159 6.822695 22.419419 -10.989903 19.002574 0.000000 -0.000000 0.000000 1.312413 -2.789466 -0.147614 7.802422 -9.400624 -25.058881 5.148000 -0.113754 11.930293 2.309759 30.788869 10.240043 2.060185 27.124349 -13.360001 31.556346 4.760362 -18.630560 9.309696 -14.368785 -21.772825 12.399437 -6.475561 -15.431505 -12.942016 -11.210425 -26.755611 -20.433931 -15.550252 -18.028133 2.019156 -1.179938 -17.311909 -130.643227 60.553492 -130.505378 14.943659 12.015965 -24.616540 
0.232899 0.452990 0.983561 80.212732 3.103233 99.349272 -1.984605 1.325839 -4.697931 -3.037909 -6.743035 -3.438519 7.404782 14.679951 -8.320540 0.000000 -0.000000 0.000000 -21.690998 -4.190874 1.217405 0.172985 8.126886 6.945219 22.458941 -10.849621 18.950159 0.000000 -0.000000 0.000000 1.259783 -2.722103 -0.231139 7.830221 -9.276490 -24.988421 5.166934 -0.127403 11.778666 2.413833 30.735422 10.367085 2.107159 26.945977 -13.044772 31.543719 4.843440 -18.753073 9.219988 -14.537533 -21.796554 12.370241 -6.404629 -15.320356 -12.836854 -11.104019 -26.287221 -20.360631 -15.496158 -17.909928 1.879914 -1.207788 -17.324523 -130.865924 60.549385 -130.962162 14.830020 12.256054 -24.607933 
0.232450 0.452803 0.983381 80.327032 3.124522 99.316116 -1.900422 1.338809 -4.771039 -3.125837 -6.838455 -3.241416 7.419431 14.665296 -8.433633 0.000000 -0.000000 0.000000 -21.659065 -4.176793 1.307264 0.245388 8.107282 6.941860 22.402842 -10.974060 18.941285 0.000000 -0.000000 0.000000 1.311911 -2.778873 -0.304899 7.786620 -9.314340 -24.958625 5.138206 -0.057762 11.877781 2.388045 30.751406 10.100239 2.215635 26.957781 -12.788327 31.512274 4.566394 -18.612276 9.273736 -14.245470 -21.818134 12.685401 -6.470897 -14.977323 -13.095741 -11.269008 -26.529914 -20.492966 -15.296959 -17.724975 2.085339 -1.582148 -17.538490 -131.114624 60.474684 -130.922176 15.054605 12.304541 -24.764183 
0.232210 0.452381 0.983258 80.220674 3.115793 99.184473 -1.870101 1.339365 -4.697492 -3.171990 -6.762810 -3.168744 7.461181 14.719786 -8.450379 0.000000 -0.000000 0.000000 -21.686535 -4.018623 1.410266 0.268913 8.117096 6.907353 22.434579 -10.992827 18.852054 0.000000 -0.000000 0.000000 1.278365 -2.770895 -0.213258 7.773236 -9.274751 -24.924507 5.096928 -0.062501 11.919221 2.431764 30.980939 10.144634 2.185424 26.897747 -12.789764 31.589720 4.660381 -18.457256 9.318990 -14.140382 -21.873922 12.657776 -6.449288 -15.008359 -14.056572 -11.829727 -26.582060 -20.458921 -15.157689 -17.708000 2.153529 -1.519271 -17.589175 -130.720628 60.404597 -130.264532 15.910272 12.373660 -24.521919 
